<svg xmlns="http://www.w3.org/2000/svg" xmlns:xlink="http://www.w3.org/1999/xlink" viewBox="0 0 1380 200" preserveAspectRatio="xMidYMid" style="display: block; shape-rendering: auto; background: transparent;" width="1380" height="200"><style type="text/css">
  .ld-text text {
    text-anchor: middle;
    dominant-baseline: middle;
    font-size: 180px;
    opacity: 0;
    user-select: none;
    pointer-events: none;
  }
</style>
<g style="transform-origin:690px 100px;transform:scale(1)" class="ld-text">
<g transform="translate(690,100)">
  <g transform="scale(2.2500) translate(0,0)"><g class="path" style="opacity: 1; transform-origin: -174px 0.14px 0px; transform: matrix3d(0.91, 0, 0, 0, 0, 0.91, 0, 0, 0, 0, 0.91, 0, 0, 0, 0, 1); animation: 1s linear -0.612857s infinite forwards animate-tnoys1fa54; transform-box: view-box;"><path d="M83.44 40.45L83.44 40.45Q85.52 40.45 87.44 38.21L87.44 38.21L88.64 39.17Q88.40 39.49 88 39.97Q87.60 40.45 86.04 41.25Q84.48 42.05 82.64 42.05L82.64 42.05Q73.68 42.05 73.68 34.29L73.68 34.29Q73.68 31.89 74.24 27.17L74.24 27.17Q70.40 28.37 67.36 28.37L67.36 28.37Q62 28.37 56.64 25.09L56.64 25.09Q53.52 30.45 50.80 34.25Q48.08 38.05 44.48 41.65L44.48 41.65Q37.04 48.93 26.52 48.93Q16 48.93 9.76 42.21L9.76 42.21Q4.24 36.05 4.24 27.21Q4.24 18.37 9.92 11.49Q15.60 4.61 24.64 4.61Q33.68 4.61 38.40 9.97L38.40 9.97Q39.52 11.41 40 12.13L40 12.13Q44.32 13.97 49.84 18.21L49.84 18.21Q54 21.57 56 22.85L56 22.85Q57.12 20.77 59.08 17.25Q61.04 13.73 62.08 11.89Q63.12 10.05 65.20 6.69Q67.28 3.33 68.60 1.61Q69.92-0.11 72.12-2.71Q74.32-5.31 76.16-6.59L76.16-6.59Q81.68-10.51 85.44-11.15L85.44-11.15Q87.52-11.47 88.96-11.47Q90.40-11.47 92.16-11.43Q93.92-11.39 97.12-10.51L97.12-10.51L96.72-8.99Q94.80-9.55 92.64-9.79L92.64-9.79Q84.64 21.65 83.44 40.45 zM42.56 21.41L42.56 21.41Q42.56 27.33 39.16 31.89Q35.76 36.45 30 36.45L30 36.45Q26.24 36.45 23.88 34.21Q21.52 31.97 21.52 29.57Q21.52 27.17 22.24 25.61Q22.96 24.05 23.88 23.25Q24.80 22.45 25.92 21.97L25.92 21.97Q27.44 21.17 28.32 21.17L28.32 21.17L28.48 22.77Q26.48 22.77 24.80 24.69Q23.12 26.61 23.12 29.01Q23.12 31.41 25 33.13Q26.88 34.85 30 34.85L30 34.85Q35.12 34.85 38.08 30.85Q41.04 26.85 41.04 21.97Q41.04 17.09 39.04 13.49L39.04 13.49Q34.64 11.81 30.32 11.81L30.32 11.81Q22 11.81 18.56 19.57L18.56 19.57L17.04 19.09Q17.92 17.09 19.84 14.77L19.84 14.77Q23.60 10.21 30.32 10.21L30.32 10.21Q33.92 10.21 37.44 11.25L37.44 11.25L37.28 11.01Q32.88 6.21 24.60 6.21Q16.32 6.21 11.08 12.61Q5.84 19.01 5.84 27.29Q5.84 35.57 10.96 41.09L10.96 41.09Q16.72 47.33 27.04 47.33L27.04 47.33Q36.48 47.33 43.52 40.21L43.52 40.21Q47.04 36.77 49.64 33.09Q52.24 29.41 55.28 24.21L55.28 24.21Q52.56 22.45 48.68 19.37Q44.80 16.29 41.20 14.45L41.20 14.45Q42.56 17.81 42.56 21.41 zM60.48 18.21L57.44 23.73Q62.56 26.77 66.84 26.77Q71.12 26.77 74.48 25.41L74.48 25.41Q76.40 11.89 81.68-8.19L81.68-8.19Q75.28-5.15 69.92 2.61L69.92 2.61Q66 8.21 60.48 18.21L60.48 18.21" style="fill: rgb(255, 255, 255);" transform="translate(-224.680,-18.586)"></path></g><g class="path" style="opacity: 1; transform-origin: -111.72px 8.66px 0px; transform: matrix3d(0.91, 0, 0, 0, 0, 0.91, 0, 0, 0, 0, 0.91, 0, 0, 0, 0, 1); animation: 1s linear -0.565714s infinite forwards animate-tnoys1fa54; transform-box: view-box;"><path d="M112.64 37.81L112.64 37.81Q108.96 37.81 106.80 36.13L106.80 36.13L104.40 49.01L94.88 49.01L102.40 7.09Q100 7.33 98.40 9.33L98.40 9.33L97.20 8.37Q99.60 5.49 103.16 5.49Q106.72 5.49 108.72 7.21Q110.72 8.93 110.88 12.05L110.88 12.05Q114.40 6.05 119.84 6.05Q125.28 6.05 128.16 9.13Q131.04 12.21 131.04 17.57L131.04 17.57Q131.04 27.01 125.92 32.41Q120.80 37.81 112.64 37.81 zM110.24 17.25L107.36 32.93Q108.72 35.97 112.52 35.97Q116.32 35.97 119.16 29.57Q122 23.17 122 14.29L122 14.29Q122 10.61 121.24 9.25Q120.48 7.89 118.48 7.89Q116.48 7.89 114.36 10.29Q112.24 12.69 111.28 14.81Q110.32 16.93 110.32 17.25L110.32 17.25L110.24 17.25" style="fill: rgb(240, 240, 240);" transform="translate(-224.680,-18.586)"></path></g><g class="path" style="opacity: 1; transform-origin: -73.4px 8.66px 0px; transform: matrix3d(0.91, 0, 0, 0, 0, 0.91, 0, 0, 0, 0, 0.91, 0, 0, 0, 0, 1); animation: 1s linear -0.518571s infinite forwards animate-tnoys1fa54; transform-box: view-box;"><path d="M150.96 37.81L150.96 37.81Q147.28 37.81 145.12 36.13L145.12 36.13L142.72 49.01L133.20 49.01L140.72 7.09Q138.32 7.33 136.72 9.33L136.72 9.33L135.52 8.37Q137.92 5.49 141.48 5.49Q145.04 5.49 147.04 7.21Q149.04 8.93 149.20 12.05L149.20 12.05Q152.72 6.05 158.16 6.05Q163.60 6.05 166.48 9.13Q169.36 12.21 169.36 17.57L169.36 17.57Q169.36 27.01 164.24 32.41Q159.12 37.81 150.96 37.81 zM148.56 17.25L145.68 32.93Q147.04 35.97 150.84 35.97Q154.64 35.97 157.48 29.57Q160.32 23.17 160.32 14.29L160.32 14.29Q160.32 10.61 159.56 9.25Q158.80 7.89 156.80 7.89Q154.80 7.89 152.68 10.29Q150.56 12.69 149.60 14.81Q148.64 16.93 148.64 17.25L148.64 17.25L148.56 17.25" style="fill: rgb(217, 217, 217);" transform="translate(-224.680,-18.586)"></path></g><g class="path" style="opacity: 1; transform-origin: -35.72px 3.38px 0px; transform: matrix3d(0.91, 0, 0, 0, 0, 0.91, 0, 0, 0, 0, 0.91, 0, 0, 0, 0, 1); animation: 1s linear -0.471429s infinite forwards animate-tnoys1fa54; transform-box: view-box;"><path d="M185.84 37.89Q179.68 37.89 176.48 34.81Q173.28 31.73 173.28 27.05Q173.28 22.37 174.12 19.05Q174.96 15.73 176.88 12.65Q178.80 9.57 182.68 7.81Q186.56 6.05 192.36 6.05Q198.16 6.05 201.40 9.13Q204.64 12.21 204.64 17.57L204.64 17.57Q204.64 26.69 199.80 32.29Q194.96 37.89 185.84 37.89L185.84 37.89 zM182.32 29.65L182.32 29.65Q182.32 36.05 186.04 36.05Q189.76 36.05 192.68 29.61Q195.60 23.17 195.60 14.29L195.60 14.29Q195.60 7.57 191.96 7.57Q188.32 7.57 185.32 13.69Q182.32 19.81 182.32 29.65" style="fill: rgb(189, 189, 189);" transform="translate(-224.680,-18.586)"></path></g><g class="path" style="opacity: 1; transform-origin: -1.08px 3.02px 0px; transform: matrix3d(0.91, 0, 0, 0, 0, 0.91, 0, 0, 0, 0, 0.91, 0, 0, 0, 0, 1); animation: 1s linear -0.424286s infinite forwards animate-tnoys1fa54; transform-box: view-box;"><path d="M210.24 9.89L209.04 8.93Q211.44 6.05 215.08 6.05Q218.72 6.05 220.72 7.89Q222.72 9.73 222.72 13.09L222.72 13.09L222.72 13.57Q226.32 6.05 232.08 6.05L232.08 6.05Q238.24 6.05 238.24 12.45L238.24 12.45Q238.24 15.09 236.48 18.05Q234.72 21.01 232.96 23.69Q231.20 26.37 231.20 28.45L231.20 28.45L229.28 28.45Q229.28 25.49 232.72 20.45Q236.16 15.41 236.16 12.65Q236.16 9.89 235.08 8.89Q234 7.89 231.88 7.89Q229.76 7.89 227.72 9.73Q225.68 11.57 224.32 14.37L224.32 14.37Q222.16 18.53 221.44 21.17L221.44 21.17L221.44 21.25L218.56 37.17L208.96 37.17L214.24 7.65Q211.84 7.89 210.24 9.89L210.24 9.89" style="fill: rgb(150, 150, 150);" transform="translate(-224.680,-18.586)"></path></g><g class="path" style="opacity: 1; transform-origin: 27.8px -2.54px 0px; transform: matrix3d(0.91, 0, 0, 0, 0, 0.91, 0, 0, 0, 0, 0.91, 0, 0, 0, 0, 1); animation: 1s linear -0.377143s infinite forwards animate-tnoys1fa54; transform-box: view-box;"><path d="M240.80 6.77L244.88 6.77L247.04-5.07Q252.96-5.07 255.84-5.55L255.84-5.55L256.88-5.79Q255.76-0.19 254.40 6.77L254.40 6.77L264.32 6.77L264.16 8.21L254.16 8.21Q250.16 28.85 250.16 33.09L250.16 33.09Q250.16 35.65 252.88 35.65Q255.60 35.65 257.84 32.21Q260.08 28.77 261.04 24.77L261.04 24.77L262.48 25.25Q259.52 37.89 250.24 37.89L250.24 37.89Q246.40 37.89 243.84 35.77Q241.28 33.65 241.28 29.85Q241.28 26.05 244.56 8.21L244.56 8.21L240.64 8.21L240.80 6.77" style="fill: rgb(115, 115, 115);" transform="translate(-224.680,-18.586)"></path></g><g class="path" style="opacity: 1; transform-origin: 49.12px 3.38px 0px; transform: matrix3d(0.91, 0, 0, 0, 0, 0.91, 0, 0, 0, 0, 0.91, 0, 0, 0, 0, 1); animation: 1s linear -0.33s infinite forwards animate-tnoys1fa54; transform-box: view-box;"><path d="M280.48 35.01Q278.08 37.89 274.48 37.89Q270.88 37.89 268.84 36.05Q266.80 34.21 266.80 31.25L266.80 31.25Q266.80 30.21 268.08 22.53L268.08 22.53L270.72 8.21L267.36 8.21L267.52 6.77L270.96 6.77Q276.88 6.77 279.68 6.29L279.68 6.29L280.80 6.05L275.28 36.29Q277.68 36.05 279.28 34.05L279.28 34.05L280.48 35.01" style="fill: rgb(82, 82, 82);" transform="translate(-224.680,-18.586)"></path></g><g class="path" style="opacity: 1; transform-origin: 52.88px -24.34px 0px; transform: matrix3d(0.91, 0, 0, 0, 0, 0.91, 0, 0, 0, 0, 0.91, 0, 0, 0, 0, 1); animation: 1s linear -0.282857s infinite forwards animate-tnoys1fa54; transform-box: view-box;"><path d="M273.44-1.63Q271.76-3.31 271.76-5.71Q271.76-8.11 273.44-9.83Q275.12-11.55 277.52-11.55Q279.92-11.55 281.64-9.83Q283.36-8.11 283.36-5.71Q283.36-3.31 281.64-1.63Q279.92 0.05 277.52 0.05Q275.12 0.05 273.44-1.63" style="fill: rgb(37, 37, 37);" transform="translate(-224.680,-18.586)"></path></g><g class="path" style="opacity: 1; transform-origin: 76.04px 3.38px 0px; transform: matrix3d(0.91, 0, 0, 0, 0, 0.91, 0, 0, 0, 0, 0.91, 0, 0, 0, 0, 1); animation: 1s linear -0.235714s infinite forwards animate-tnoys1fa54; transform-box: view-box;"><path d="M297.60 37.89Q291.44 37.89 288.24 34.81Q285.04 31.73 285.04 27.05Q285.04 22.37 285.88 19.05Q286.72 15.73 288.64 12.65Q290.56 9.57 294.44 7.81Q298.32 6.05 304.12 6.05Q309.92 6.05 313.16 9.13Q316.40 12.21 316.40 17.57L316.40 17.57Q316.40 26.69 311.56 32.29Q306.72 37.89 297.60 37.89L297.60 37.89 zM294.08 29.65L294.08 29.65Q294.08 36.05 297.80 36.05Q301.52 36.05 304.44 29.61Q307.36 23.17 307.36 14.29L307.36 14.29Q307.36 7.57 303.72 7.57Q300.08 7.57 297.08 13.69Q294.08 19.81 294.08 29.65" style="fill: rgb(0, 0, 0);" transform="translate(-224.680,-18.586)"></path></g><g class="path" style="opacity: 1; transform-origin: 113.84px 3.38px 0px; transform: matrix3d(0.91, 0, 0, 0, 0, 0.91, 0, 0, 0, 0, 0.91, 0, 0, 0, 0, 1); animation: 1s linear -0.188571s infinite forwards animate-tnoys1fa54; transform-box: view-box;"><path d="M351.28 36.29L351.28 36.29Q353.20 36.29 355.28 34.05L355.28 34.05L356.48 35.01Q355.92 36.13 354 37.01Q352.08 37.89 349.76 37.89L349.76 37.89Q342.48 37.89 342.48 31.33L342.48 31.33Q342.48 28.53 343.92 21.33Q345.36 14.13 345.36 11.89L345.36 11.89Q345.36 8.45 342.08 8.45L342.08 8.45Q339.44 8.45 337 11.89Q334.56 15.33 332.96 21.33L332.96 21.33L330.24 36.29Q332.72 36.05 334.32 34.05L334.32 34.05L335.52 35.01Q333.12 37.89 329.52 37.89Q325.92 37.89 323.88 36.05Q321.84 34.21 321.84 31.25L321.84 31.25Q321.84 30.13 323.12 22.45L323.12 22.45L325.76 7.65Q323.36 7.89 321.76 9.89L321.76 9.89L320.56 8.93Q322.96 6.05 326.60 6.05Q330.24 6.05 332.24 7.89Q334.24 9.73 334.24 13.09L334.24 13.09L334.24 13.57Q337.52 6.05 344.48 6.05L344.48 6.05Q349.20 6.05 351.84 8.73Q354.48 11.41 354.48 16.13L354.48 16.13Q354.48 18.61 352.96 25.69Q351.44 32.77 351.28 36.29" style="fill: rgb(255, 255, 255);" transform="translate(-224.680,-18.586)"></path></g><g class="path" style="opacity: 1; transform-origin: 143.68px 3.38px 0px; transform: matrix3d(0.91, 0, 0, 0, 0, 0.91, 0, 0, 0, 0, 0.91, 0, 0, 0, 0, 1); animation: 1s linear -0.141429s infinite forwards animate-tnoys1fa54; transform-box: view-box;"><path d="M375.04 35.01Q372.64 37.89 369.04 37.89Q365.44 37.89 363.40 36.05Q361.36 34.21 361.36 31.25L361.36 31.25Q361.36 30.21 362.64 22.53L362.64 22.53L365.28 8.21L361.92 8.21L362.08 6.77L365.52 6.77Q371.44 6.77 374.24 6.29L374.24 6.29L375.36 6.05L369.84 36.29Q372.24 36.05 373.84 34.05L373.84 34.05L375.04 35.01" style="fill: rgb(240, 240, 240);" transform="translate(-224.680,-18.586)"></path></g><g class="path" style="opacity: 1; transform-origin: 147.44px -24.34px 0px; transform: matrix3d(0.91, 0, 0, 0, 0, 0.91, 0, 0, 0, 0, 0.91, 0, 0, 0, 0, 1); animation: 1s linear -0.0942857s infinite forwards animate-tnoys1fa54; transform-box: view-box;"><path d="M368-1.63Q366.32-3.31 366.32-5.71Q366.32-8.11 368-9.83Q369.68-11.55 372.08-11.55Q374.48-11.55 376.20-9.83Q377.92-8.11 377.92-5.71Q377.92-3.31 376.20-1.63Q374.48 0.05 372.08 0.05Q369.68 0.05 368-1.63" style="fill: rgb(217, 217, 217);" transform="translate(-224.680,-18.586)"></path></g><g class="path" style="opacity: 1; transform-origin: 173.12px 3.38px 0px; transform: matrix3d(0.91, 0, 0, 0, 0, 0.91, 0, 0, 0, 0, 0.91, 0, 0, 0, 0, 1); animation: 1s linear -0.0471429s infinite forwards animate-tnoys1fa54; transform-box: view-box;"><path d="M410.56 36.29L410.56 36.29Q412.48 36.29 414.56 34.05L414.56 34.05L415.76 35.01Q415.20 36.13 413.28 37.01Q411.36 37.89 409.04 37.89L409.04 37.89Q401.76 37.89 401.76 31.33L401.76 31.33Q401.76 28.53 403.20 21.33Q404.64 14.13 404.64 11.89L404.64 11.89Q404.64 8.45 401.36 8.45L401.36 8.45Q398.72 8.45 396.28 11.89Q393.84 15.33 392.24 21.33L392.24 21.33L389.52 36.29Q392 36.05 393.60 34.05L393.60 34.05L394.80 35.01Q392.40 37.89 388.80 37.89Q385.20 37.89 383.16 36.05Q381.12 34.21 381.12 31.25L381.12 31.25Q381.12 30.13 382.40 22.45L382.40 22.45L385.04 7.65Q382.64 7.89 381.04 9.89L381.04 9.89L379.84 8.93Q382.24 6.05 385.88 6.05Q389.52 6.05 391.52 7.89Q393.52 9.73 393.52 13.09L393.52 13.09L393.52 13.57Q396.80 6.05 403.76 6.05L403.76 6.05Q408.48 6.05 411.12 8.73Q413.76 11.41 413.76 16.13L413.76 16.13Q413.76 18.61 412.24 25.69Q410.72 32.77 410.56 36.29" style="fill: rgb(189, 189, 189);" transform="translate(-224.680,-18.586)"></path></g><g class="path" style="opacity: 1; transform-origin: 211px 10.38px 0px; transform: matrix3d(0.91, 0, 0, 0, 0, 0.91, 0, 0, 0, 0, 0.91, 0, 0, 0, 0, 1); animation: 1s linear infinite forwards animate-tnoys1fa54; transform-box: view-box;"><path d="M445.84 45.89L445.84 45.89Q448.72 45.89 450.80 43.65L450.80 43.65L451.92 44.61Q450 47.33 445.84 47.33L445.84 47.33Q444.08 47.33 442.24 46.93L442.24 46.93Q436.80 51.89 428.32 51.89L428.32 51.89Q423.28 51.89 420.52 50.17Q417.76 48.45 417.76 45.69Q417.76 42.93 419.48 41.29Q421.20 39.65 425.60 39.65Q430 39.65 437.20 43.25L437.20 43.25L439.68 29.97Q436.08 36.61 430.40 36.61L430.40 36.61Q419.52 36.61 419.52 25.89L419.52 25.89Q419.52 16.93 424.04 11.49Q428.56 6.05 435.60 6.05L435.60 6.05Q439.68 6.05 441.92 8.53L441.92 8.53Q442.56 9.25 443.20 10.69L443.20 10.69L443.92 6.77Q449.84 6.77 452.56 6.29L452.56 6.29L453.60 6.05L448.32 35.57Q447.12 41.81 443.52 45.65L443.52 45.65Q444.56 45.89 445.84 45.89 zM428.56 28.37Q428.56 32.05 429.28 33.29Q430 34.53 432 34.53Q434 34.53 436.08 32.37Q438.16 30.21 439.08 28.33Q440 26.45 440.64 24.69L440.64 24.69L442.32 15.49L442.32 14.93Q442.32 7.57 435.60 7.57L435.60 7.57Q433.04 7.57 430.80 14.53Q428.56 21.49 428.56 28.37L428.56 28.37 zM428 50.29L428 50.29Q434.40 50.29 436.64 44.77L436.64 44.77L435.52 44.21Q434.56 43.73 434.36 43.61Q434.16 43.49 433.28 43.09Q432.40 42.69 432 42.57Q431.60 42.45 430.76 42.13Q429.92 41.81 429.36 41.69Q428.80 41.57 428.08 41.41L428.08 41.41Q426.88 41.17 424.56 41.17Q422.24 41.17 420.84 42.29Q419.44 43.41 419.44 45.57Q419.44 47.73 421.76 49.01Q424.08 50.29 428 50.29" style="fill: rgb(150, 150, 150);" transform="translate(-224.680,-18.586)"></path></g></g><text dy="0.35em" fill="#ffffff" font-family="Sail" font-size="180">Apportioning</text>
</g>
</g><style type="text/css">@keyframes animate-tnoys1fa54 { 0.00% {transform: translate(0.00px,0.00px) rotate(0.00deg) scale(0.91, 0.91) skew(0deg, 0.00deg) ;opacity: 1.00;}4.00% {transform: translate(0.00px,0.00px) rotate(0.00deg) scale(0.91, 0.91) ;}8.00% {animation-timing-function: cubic-bezier(0.69,0.60,0.35,0.27);transform: translate(0.00px,0.00px) rotate(0.00deg) scale(0.91, 0.91) ;}14.00% {transform: translate(0.00px,0.00px) rotate(0.00deg) scale(0.93, 0.93) ;}18.00% {transform: translate(0.00px,0.00px) rotate(0.00deg) scale(0.94, 0.94) ;}22.00% {animation-timing-function: cubic-bezier(0.67,0.66,0.34,0.33);transform: translate(0.00px,0.00px) rotate(0.00deg) scale(0.96, 0.96) ;}26.00% {transform: translate(0.00px,0.00px) rotate(0.00deg) scale(0.97, 0.97) ;}30.00% {transform: translate(0.00px,0.00px) rotate(0.00deg) scale(0.99, 0.99) ;}34.00% {animation-timing-function: cubic-bezier(0.65,0.71,0.32,0.38);transform: translate(0.00px,0.00px) rotate(0.00deg) scale(1.01, 1.01) ;}40.00% {animation-timing-function: cubic-bezier(0.64,0.74,0.31,0.41);transform: translate(0.00px,0.00px) rotate(0.00deg) scale(1.02, 1.02) ;}46.00% {animation-timing-function: cubic-bezier(0.60,0.91,0.23,0.63);transform: translate(0.00px,0.00px) rotate(0.00deg) scale(1.03, 1.03) ;}50.00% {transform: translate(0.00px,0.00px) rotate(0.00deg) scale(1.03, 1.03) ;}54.00% {transform: translate(0.00px,0.00px) rotate(0.00deg) scale(1.03, 1.03) ;}58.00% {animation-timing-function: cubic-bezier(0.69,0.60,0.35,0.27);transform: translate(0.00px,0.00px) rotate(0.00deg) scale(1.03, 1.03) ;}64.00% {transform: translate(0.00px,0.00px) rotate(0.00deg) scale(1.01, 1.01) ;}68.00% {transform: translate(0.00px,0.00px) rotate(0.00deg) scale(1.00, 1.00) ;}72.00% {animation-timing-function: cubic-bezier(0.67,0.66,0.34,0.33);transform: translate(0.00px,0.00px) rotate(0.00deg) scale(0.98, 0.98) ;}76.00% {animation-timing-function: cubic-bezier(0.66,0.68,0.33,0.35);transform: translate(0.00px,0.00px) rotate(0.00deg) scale(0.97, 0.97) ;}82.00% {animation-timing-function: cubic-bezier(0.65,0.71,0.32,0.38);transform: translate(0.00px,0.00px) rotate(0.00deg) scale(0.94, 0.94) ;}88.00% {animation-timing-function: cubic-bezier(0.65,0.73,0.31,0.40);transform: translate(0.00px,0.00px) rotate(0.00deg) scale(0.92, 0.92) ;}94.00% {animation-timing-function: cubic-bezier(0.63,0.80,0.28,0.48);transform: translate(0.00px,0.00px) rotate(0.00deg) scale(0.91, 0.91) ;}100.00% {animation-timing-function: cubic-bezier(0.63,0.80,0.28,0.48);transform: translate(0.00px,0.00px) rotate(0.00deg) scale(0.91, 0.91) ;} }</style><!-- [ldio] generated by https://loading.io --></svg>