<svg xmlns="http://www.w3.org/2000/svg" xmlns:xlink="http://www.w3.org/1999/xlink" viewBox="0 0 1380 200" preserveAspectRatio="xMidYMid" style="display: block; shape-rendering: auto; background: transparent;" width="1380" height="200"><style type="text/css">
  .ld-text text {
    text-anchor: middle;
    dominant-baseline: middle;
    font-size: 150px;
    opacity: 0;
    user-select: none;
    pointer-events: none;
  }
</style>
<g style="transform-origin:690px 100px;transform:scale(1)" class="ld-text">
<g transform="translate(690,100)">
  <g transform="scale(1.8750) translate(0,0)"><g class="path" style="opacity: 1; transform-origin: -67.84px -0.76px 0px; transform: matrix3d(0.91, 0, 0, 0, 0, 0.91, 0, 0, 0, 0, 0.91, 0, 0, 0, 0, 1); animation: 1s linear -0.44s infinite forwards animate-tnoys1fa54; transform-box: view-box;"><path d="M21.84 18.32L21.84 18.32Q26 16.96 31.52 16.96Q37.04 16.96 37.04 20.16L37.04 20.16Q37.04 22.08 34.96 23.32Q32.88 24.56 28.96 24.56L28.96 24.56Q22.80 24.56 19.04 21.60L19.04 21.60Q17.60 23.12 16.80 24.16Q16 25.20 15 28.16Q14 31.12 14 35.28Q14 39.44 17.52 42.52Q21.04 45.60 24.84 45.60Q28.64 45.60 31.92 44.16Q35.20 42.72 37.12 40.80Q39.04 38.88 40.48 36.56L40.48 36.56Q42.48 33.60 43.12 31.36L43.12 31.36L44.72 31.76Q44.72 32 44.12 33.44Q43.52 34.88 41.92 37.24Q40.32 39.60 38.08 41.80Q35.84 44 31.92 45.60Q28 47.20 23.36 47.20L23.36 47.20Q14.80 47.20 10 43.56Q5.20 39.92 5.20 34.08Q5.20 28.24 8.84 24.80Q12.48 21.36 17.44 20L17.44 20Q13.84 15.60 13.84 9.56Q13.84 3.52 18.68-1.20Q23.52-5.92 32.64-5.92L32.64-5.92Q39.60-5.92 43.32-3.48Q47.04-1.04 47.04 2.60Q47.04 6.24 45.16 10.04Q43.28 13.84 43.04 16.08L43.04 16.08L41.36 16.08Q41.60 13.68 43.48 9.92Q45.36 6.16 45.36 2.92Q45.36-0.32 41.96-2.40Q38.56-4.48 33.32-4.48Q28.08-4.48 24.40-0.44Q20.72 3.60 20.72 11.92L20.72 11.92Q20.72 16.40 21.84 18.32 zM23.04 20.64Q23.44 21.20 25.08 22.16Q26.72 23.12 29.44 23.12Q32.16 23.12 33.80 22.28Q35.44 21.44 35.44 20.32L35.44 20.32Q35.44 18.40 31.12 18.40Q26.80 18.40 22.48 19.68L22.48 19.68Q22.64 20.08 23.04 20.64" style="fill: rgb(255, 255, 255);" transform="translate(-93.960,-21.400)"></path></g><g class="path" style="opacity: 1; transform-origin: -17.32px 3.8px 0px; transform: matrix3d(0.91, 0, 0, 0, 0, 0.91, 0, 0, 0, 0, 0.91, 0, 0, 0, 0, 1); animation: 1s linear -0.22s infinite forwards animate-tnoys1fa54; transform-box: view-box;"><path d="M100.88 46.40L100.88 46.40L102.56 46.40Q102.56 59.04 89.36 59.04L89.36 59.04Q85.20 58.88 80.16 56.52Q75.12 54.16 71.20 51.44Q67.28 48.72 62.24 46.44Q57.20 44.16 53.04 44.16L53.04 44.16Q51.36 44.16 50.24 44.68Q49.12 45.20 48.88 45.68L48.88 45.68L48.56 46.16L46.72 46.16Q47.04 41.76 49.52 39.36Q52 36.96 56.16 36.96L56.16 36.96Q59.52 36.96 62.16 37.76L62.16 37.76L62.96 38L89.60 11.04Q85.52 9.92 76.20 4.76Q66.88-0.40 63.08-0.40Q59.28-0.40 57.36 1.36L57.36 1.36L57.36 2.48Q57.36 6.80 60.16 9.04L60.16 9.04Q62.64 11.04 64.48 11.44L64.48 11.44L65.28 11.68L64.88 13.04Q64.24 12.88 63.72 12.68Q63.20 12.48 62.48 12.24Q61.76 12 61.04 11.52Q60.32 11.04 59.56 10.48Q58.80 9.92 58.12 9.12Q57.44 8.32 56.88 7.44L56.88 7.44Q55.76 5.36 55.76 2.48L55.76 2.48Q55.76-2.80 58.92-5.72Q62.08-8.64 67.84-8.64L67.84-8.64Q70.96-8.64 74.04-7.56Q77.12-6.48 78.76-5.48Q80.40-4.48 83.24-2.52Q86.08-0.56 87.44 0.28Q88.80 1.12 91.24 2.04Q93.68 2.96 96.60 2.96Q99.52 2.96 101.68 2Q103.84 1.04 104.24 0.08L104.24 0.08L104.64-0.80L106.56-0.88Q106.56 2.16 105.72 4.76Q104.88 7.36 102 9.52Q99.12 11.68 94.40 11.68L94.40 11.68Q92.88 11.68 91.44 11.44L91.44 11.44L64.72 38.56Q68.32 39.92 73.72 43.44Q79.12 46.96 84.04 49.28Q88.96 51.60 93.80 51.60Q98.64 51.60 100.48 49.76L100.48 49.76Q100.88 48 100.88 46.40" style="fill: rgb(240, 240, 240);" transform="translate(-93.960,-21.400)"></path></g><g class="path" style="opacity: 1; transform-origin: 58.48px -3.04px 0px; transform: matrix3d(0.91, 0, 0, 0, 0, 0.91, 0, 0, 0, 0, 0.91, 0, 0, 0, 0, 1); animation: 1s linear infinite forwards animate-tnoys1fa54; transform-box: view-box;"><path d="M137.56 32.88Q139.36 27.28 140.84 20.48Q142.32 13.68 142.32 8Q142.32 2.32 139.68-0.96Q137.04-4.24 132.32-4.24L132.32-4.24Q125.52-4.24 119.76 0.88L119.76 0.88Q116.88 3.44 115.16 7.72Q113.44 12 113.44 16.64Q113.44 21.28 114.76 24.40Q116.08 27.52 117.92 29.12L117.92 29.12Q121.84 32.56 124.72 33.20L124.72 33.20L126.08 33.44L125.52 34.96Q124.16 34.56 123.24 34.28Q122.32 34 120 32.64Q117.68 31.28 116.04 29.56Q114.40 27.84 113.08 24.60Q111.76 21.36 111.76 17.36L111.76 17.36Q111.76 7.04 117.72 0.56Q123.68-5.92 133.20-5.92L133.20-5.92Q150.80-5.92 150.80 10.80L150.80 10.80Q150.80 19.28 149.36 23.60L149.36 23.60Q169.28-19.52 184.96-19.52L184.96-19.52Q189.44-19.52 191.28-17.56Q193.12-15.60 193.12-11.76L193.12-11.76L191.28-11.76Q190.88-15.28 189.40-16.44Q187.92-17.60 184.96-17.60L184.96-17.60Q180-17.60 174.20-12.36Q168.40-7.12 163.28 1.04L163.28 1.04Q152.56 17.92 146.40 35.92L146.40 35.92Q141.44 50.24 139.44 56.24L139.44 56.24L128.72 56.24Q130.32 52.72 133.04 45.60Q135.76 38.48 137.56 32.88" style="fill: rgb(217, 217, 217);" transform="translate(-93.960,-21.400)"></path></g></g><text dy="0.35em" fill="#ffffff" font-family="Sail" font-size="150">EZY</text>
</g>
</g><style type="text/css">@keyframes animate-tnoys1fa54 { 0.00% {transform: translate(0.00px,0.00px) rotate(0.00deg) scale(0.91, 0.91) skew(0deg, 0.00deg) ;opacity: 1.00;}4.00% {transform: translate(0.00px,0.00px) rotate(0.00deg) scale(0.91, 0.91) ;}8.00% {animation-timing-function: cubic-bezier(0.69,0.60,0.35,0.27);transform: translate(0.00px,0.00px) rotate(0.00deg) scale(0.91, 0.91) ;}14.00% {transform: translate(0.00px,0.00px) rotate(0.00deg) scale(0.93, 0.93) ;}18.00% {transform: translate(0.00px,0.00px) rotate(0.00deg) scale(0.94, 0.94) ;}22.00% {animation-timing-function: cubic-bezier(0.67,0.66,0.34,0.33);transform: translate(0.00px,0.00px) rotate(0.00deg) scale(0.96, 0.96) ;}26.00% {transform: translate(0.00px,0.00px) rotate(0.00deg) scale(0.97, 0.97) ;}30.00% {transform: translate(0.00px,0.00px) rotate(0.00deg) scale(0.99, 0.99) ;}34.00% {animation-timing-function: cubic-bezier(0.65,0.71,0.32,0.38);transform: translate(0.00px,0.00px) rotate(0.00deg) scale(1.01, 1.01) ;}40.00% {animation-timing-function: cubic-bezier(0.64,0.74,0.31,0.41);transform: translate(0.00px,0.00px) rotate(0.00deg) scale(1.02, 1.02) ;}46.00% {animation-timing-function: cubic-bezier(0.60,0.91,0.23,0.63);transform: translate(0.00px,0.00px) rotate(0.00deg) scale(1.03, 1.03) ;}50.00% {transform: translate(0.00px,0.00px) rotate(0.00deg) scale(1.03, 1.03) ;}54.00% {transform: translate(0.00px,0.00px) rotate(0.00deg) scale(1.03, 1.03) ;}58.00% {animation-timing-function: cubic-bezier(0.69,0.60,0.35,0.27);transform: translate(0.00px,0.00px) rotate(0.00deg) scale(1.03, 1.03) ;}64.00% {transform: translate(0.00px,0.00px) rotate(0.00deg) scale(1.01, 1.01) ;}68.00% {transform: translate(0.00px,0.00px) rotate(0.00deg) scale(1.00, 1.00) ;}72.00% {animation-timing-function: cubic-bezier(0.67,0.66,0.34,0.33);transform: translate(0.00px,0.00px) rotate(0.00deg) scale(0.98, 0.98) ;}76.00% {animation-timing-function: cubic-bezier(0.66,0.68,0.33,0.35);transform: translate(0.00px,0.00px) rotate(0.00deg) scale(0.97, 0.97) ;}82.00% {animation-timing-function: cubic-bezier(0.65,0.71,0.32,0.38);transform: translate(0.00px,0.00px) rotate(0.00deg) scale(0.94, 0.94) ;}88.00% {animation-timing-function: cubic-bezier(0.65,0.73,0.31,0.40);transform: translate(0.00px,0.00px) rotate(0.00deg) scale(0.92, 0.92) ;}94.00% {animation-timing-function: cubic-bezier(0.63,0.80,0.28,0.48);transform: translate(0.00px,0.00px) rotate(0.00deg) scale(0.91, 0.91) ;}100.00% {animation-timing-function: cubic-bezier(0.63,0.80,0.28,0.48);transform: translate(0.00px,0.00px) rotate(0.00deg) scale(0.91, 0.91) ;} }</style><!-- [ldio] generated by https://loading.io --></svg>