<svg xml:space="preserve" viewBox="0 0 100 100" y="0" x="0" xmlns="http://www.w3.org/2000/svg" id="圖層_1" version="1.1" preserveAspectRatio="xMidYMid" width="150" height="150" xmlns:xlink="http://www.w3.org/1999/xlink" style="margin-top:0px;margin-right:0px;margin-bottom:0px;margin-left:0px;display:block;shape-rendering:auto;background-position-x:0%;background-position-y:0%;background-size:auto;background-origin:padding-box;background-clip:border-box;fill:rgb(0, 0, 0);stroke:none;transform:none;opacity:1;background:scroll rgba(0, 0, 0, 0) none  repeat;width:150px;height:150px;;animation:none"><g class="ldl-scale" style="transform-origin:50px 50px;transform:matrix(0.8, 0, 0, 0.8, 0, 0);fill:rgb(0, 0, 0);stroke:none;opacity:1;;animation:none"><g class="ldl-ani" style="fill:rgb(0, 0, 0);stroke:none;transform:none;opacity:1;;animation:none"><g class="ldl-layer" style="fill:rgb(0, 0, 0);stroke:none;transform:none;opacity:1;;animation:none"><g class="ldl-ani" style="fill:rgb(0, 0, 0);stroke:none;transform:none;opacity:1;;animation:none"><g style="fill:rgb(0, 0, 0);stroke:none;transform:none;opacity:1;;animation:none"><g class="ldl-layer" style="fill:rgb(0, 0, 0);stroke:none;transform:none;opacity:1;;animation:none"><g class="ldl-ani" style="opacity:1;transform-origin:50px 50px;transform:matrix(1.03, 0, 0, 1.03, 0, 0);animation-name:animate;animation-duration:1s;animation-timing-function:linear;animation-delay:-0.571429s;animation-iteration-count:infinite;animation-direction:normal;animation-fill-mode:forwards;animation-play-state:paused;transform-box:view-box;fill:rgb(0, 0, 0);stroke:none;;animation:none"><path d="M80.398 13.459l-4.209 45.683-19.513-.483-3.919-42.526z" fill="#abbd81" style="stroke-width:1px;fill:rgb(171, 189, 129);stroke:none;transform:none;opacity:1;;animation:none"></path></g></g>
<g class="ldl-layer" style="fill:rgb(0, 0, 0);stroke:none;transform:none;opacity:1;;animation:none"><g class="ldl-ani" style="opacity:1;transform-origin:50px 50px;transform:matrix(1.00929, 0, 0, 1.00929, 0, 0);animation-name:animate;animation-duration:1s;animation-timing-function:linear;animation-delay:-0.642857s;animation-iteration-count:infinite;animation-direction:normal;animation-fill-mode:forwards;animation-play-state:paused;transform-box:view-box;fill:rgb(0, 0, 0);stroke:none;;animation:none"><path fill="#849b87" d="M66.33 34.007c3.725-.161 6.181 2.796 6.006 6.417-.165 3.425-2.601 6.095-5.972 6.126-3.311.031-6.085-2.499-6.257-5.804-.181-3.485 2.572-6.581 6.223-6.739z" style="stroke-width:1px;fill:rgb(132, 155, 135);stroke:none;transform:none;opacity:1;;animation:none"></path></g></g>
<g class="ldl-layer" style="fill:rgb(0, 0, 0);stroke:none;transform:none;opacity:1;;animation:none"><g class="ldl-ani" style="opacity:1;transform-origin:50px 50px;transform:matrix(0.982857, 0, 0, 0.982857, 0, 0);animation-name:animate;animation-duration:1s;animation-timing-function:linear;animation-delay:-0.714286s;animation-iteration-count:infinite;animation-direction:normal;animation-fill-mode:forwards;animation-play-state:paused;transform-box:view-box;fill:rgb(0, 0, 0);stroke:none;;animation:none"><path fill="#849b87" d="M66.299 22.374c1.831-.137 2.825 1.415 2.785 3.416-.039 1.946-1.024 3.564-2.766 3.66-1.725.096-3.15-1.336-3.199-3.243-.049-1.959 1.367-3.697 3.18-3.833z" style="stroke-width:1px;fill:rgb(132, 155, 135);stroke:none;transform:none;opacity:1;;animation:none"></path></g></g>
<g class="ldl-layer" style="fill:rgb(0, 0, 0);stroke:none;transform:none;opacity:1;;animation:none"><g class="ldl-ani" style="opacity:1;transform-origin:50px 50px;transform:matrix(0.956722, 0, 0, 0.956722, 0, 0);animation-name:animate;animation-duration:1s;animation-timing-function:linear;animation-delay:-0.785714s;animation-iteration-count:infinite;animation-direction:normal;animation-fill-mode:forwards;animation-play-state:paused;transform-box:view-box;fill:rgb(0, 0, 0);stroke:none;;animation:none"><path fill="#849b87" d="M66.374 50.061c1.48 0 2.197 1.088 2.17 2.403-.026 1.285-.737 2.291-2.158 2.272-1.41-.018-2.571-1.04-2.603-2.307-.033-1.297 1.122-2.369 2.591-2.368z" style="stroke-width:1px;fill:rgb(132, 155, 135);stroke:none;transform:none;opacity:1;;animation:none"></path></g></g>
<g class="ldl-layer" style="fill:rgb(0, 0, 0);stroke:none;transform:none;opacity:1;;animation:none"><g class="ldl-ani" style="opacity:1;transform-origin:50px 50px;transform:matrix(0.926886, 0, 0, 0.926886, 0, 0);animation-name:animate;animation-duration:1s;animation-timing-function:linear;animation-delay:-0.857143s;animation-iteration-count:infinite;animation-direction:normal;animation-fill-mode:forwards;animation-play-state:paused;transform-box:view-box;fill:rgb(0, 0, 0);stroke:none;;animation:none"><path fill="#849b87" d="M52.284 24.487l3.011 29.853.567 5.618 6.322.176 8.064.238 6.861.191.606-5.944 3.359-32.938 1.151-11.289-10.135 1.04-11.933 1.273-8.968.92 1.095 10.862zm25.825-3.119l-2.732 33.543c-2.169.572-3.895 1.932-4.676 3.625l-8.96-.216c-.747-1.677-2.367-3.046-4.355-3.65l-2.548-30.86c2.595-1.22 4.571-3.99 5.186-7.468l12.464-1.198c.83 3.135 2.902 5.413 5.621 6.224z" style="stroke-width:1px;fill:rgb(132, 155, 135);stroke:none;transform:none;opacity:1;;animation:none"></path></g></g></g></g></g>
<g class="ldl-layer" style="fill:rgb(0, 0, 0);stroke:none;transform:none;opacity:1;;animation:none"><g class="ldl-ani" style="opacity:1;transform-origin:50px 50px;transform:matrix(0.911647, 0, 0, 0.911647, 0, 0);animation-name:animate;animation-duration:1s;animation-timing-function:linear;animation-delay:-0.928571s;animation-iteration-count:infinite;animation-direction:normal;animation-fill-mode:forwards;animation-play-state:paused;transform-box:view-box;fill:rgb(0, 0, 0);stroke:none;;animation:none"><path fill="#f5e6c8" d="M83.711 41.01H66.008c-2.827 0-.311-.009-3.139 0-1.501.004-3.145.294-4.623.173-1.558-.127-4.361-1.041-4.871-2.527-.18-.523-.322-1.126-.839-1.414-.258-.144-.571-.181-.875-.189-1.793-.046-3.487.854-4.691 2.052-3.272 3.255-3.458 7.416-8.595 9.1-3.874 1.269-8.202.801-12.236.801H11.796v35.531h30.033c.398 0 .776.062 1.14.152.238.059.474.121.693.214 4.505 1.91 9.309 3.238 14.326 3.238h20.373v-.282c2.516-.741 4.336-2.871 4.336-5.386v-.434c0-2.516-1.819-4.646-4.336-5.387v-.282h.719c3.473 0 6.288-2.538 6.288-5.669v-.434c0-3.131-2.815-5.669-6.288-5.669h-.719v-.043h3.213c3.473 0 6.288-2.538 6.288-5.669v-.436c0-3.131-2.815-5.669-6.288-5.669h2.138c3.473 0 6.288-2.538 6.288-5.669v-.434c0-3.13-2.815-5.668-6.289-5.668z" style="stroke-width:1px;fill:rgb(245, 230, 200);stroke:none;transform:none;opacity:1;;animation:none"></path></g></g>
<g class="ldl-layer" style="fill:rgb(0, 0, 0);stroke:none;transform:none;opacity:1;;animation:none"><g class="ldl-ani" style="opacity:1;transform-origin:50px 50px;transform:matrix(0.91, 0, 0, 0.91, 0, 0);animation-name:animate;animation-duration:1s;animation-timing-function:linear;animation-delay:-1s;animation-iteration-count:infinite;animation-direction:normal;animation-fill-mode:forwards;animation-play-state:paused;transform-box:view-box;fill:rgb(0, 0, 0);stroke:none;;animation:none"><path fill="#333" d="M35.104 89.607H14.216A4.216 4.216 0 0 1 10 85.391v-39.7a4.216 4.216 0 0 1 4.216-4.216h20.888a4.216 4.216 0 0 1 4.216 4.216v39.7a4.215 4.215 0 0 1-4.216 4.216z" style="stroke-width:1px;fill:rgb(51, 51, 51);stroke:none;transform:none;opacity:1;;animation:none"></path></g></g>
<metadata xmlns:d="https://loading.io/stock/" style="fill:rgb(0, 0, 0);stroke:none;transform:none;opacity:1;;animation:none"></metadata></g></g>
<STYLE type="text/css">@keyframes animate { 0.00% {transform: translate(0.00px,0.00px) rotate(0.00deg) scale(0.91, 0.91) skew(0deg, 0.00deg) ;opacity: 1.00;}4.00% {transform: translate(0.00px,0.00px) rotate(0.00deg) scale(0.91, 0.91) ;}8.00% {animation-timing-function: cubic-bezier(0.69,0.60,0.35,0.27);transform: translate(0.00px,0.00px) rotate(0.00deg) scale(0.91, 0.91) ;}14.00% {transform: translate(0.00px,0.00px) rotate(0.00deg) scale(0.93, 0.93) ;}18.00% {transform: translate(0.00px,0.00px) rotate(0.00deg) scale(0.94, 0.94) ;}22.00% {animation-timing-function: cubic-bezier(0.67,0.66,0.34,0.33);transform: translate(0.00px,0.00px) rotate(0.00deg) scale(0.96, 0.96) ;}26.00% {transform: translate(0.00px,0.00px) rotate(0.00deg) scale(0.97, 0.97) ;}30.00% {transform: translate(0.00px,0.00px) rotate(0.00deg) scale(0.99, 0.99) ;}34.00% {animation-timing-function: cubic-bezier(0.65,0.71,0.32,0.38);transform: translate(0.00px,0.00px) rotate(0.00deg) scale(1.01, 1.01) ;}40.00% {animation-timing-function: cubic-bezier(0.64,0.74,0.31,0.41);transform: translate(0.00px,0.00px) rotate(0.00deg) scale(1.02, 1.02) ;}46.00% {animation-timing-function: cubic-bezier(0.60,0.91,0.23,0.63);transform: translate(0.00px,0.00px) rotate(0.00deg) scale(1.03, 1.03) ;}50.00% {transform: translate(0.00px,0.00px) rotate(0.00deg) scale(1.03, 1.03) ;}54.00% {transform: translate(0.00px,0.00px) rotate(0.00deg) scale(1.03, 1.03) ;}58.00% {animation-timing-function: cubic-bezier(0.69,0.60,0.35,0.27);transform: translate(0.00px,0.00px) rotate(0.00deg) scale(1.03, 1.03) ;}64.00% {transform: translate(0.00px,0.00px) rotate(0.00deg) scale(1.01, 1.01) ;}68.00% {transform: translate(0.00px,0.00px) rotate(0.00deg) scale(1.00, 1.00) ;}72.00% {animation-timing-function: cubic-bezier(0.67,0.66,0.34,0.33);transform: translate(0.00px,0.00px) rotate(0.00deg) scale(0.98, 0.98) ;}76.00% {animation-timing-function: cubic-bezier(0.66,0.68,0.33,0.35);transform: translate(0.00px,0.00px) rotate(0.00deg) scale(0.97, 0.97) ;}82.00% {animation-timing-function: cubic-bezier(0.65,0.71,0.32,0.38);transform: translate(0.00px,0.00px) rotate(0.00deg) scale(0.94, 0.94) ;}88.00% {animation-timing-function: cubic-bezier(0.65,0.73,0.31,0.40);transform: translate(0.00px,0.00px) rotate(0.00deg) scale(0.92, 0.92) ;}94.00% {animation-timing-function: cubic-bezier(0.63,0.80,0.28,0.48);transform: translate(0.00px,0.00px) rotate(0.00deg) scale(0.91, 0.91) ;}100.00% {animation-timing-function: cubic-bezier(0.63,0.80,0.28,0.48);transform: translate(0.00px,0.00px) rotate(0.00deg) scale(0.91, 0.91) ;} }</STYLE><!-- [ldio] generated by https://loading.io --></svg>