<svg xmlns="http://www.w3.org/2000/svg" xmlns:xlink="http://www.w3.org/1999/xlink" viewBox="0 0 1380 200" preserveAspectRatio="xMidYMid" style="display: block; shape-rendering: auto; background: transparent;" width="1380" height="200"><style type="text/css">
  .ld-text text {
    text-anchor: middle;
    dominant-baseline: middle;
    font-size: 120px;
    opacity: 0;
    user-select: none;
    pointer-events: none;
  }
</style>
<g style="transform-origin:690px 100px;transform:scale(1)" class="ld-text">
<g transform="translate(690,100)">
  <g transform="scale(1.5000) translate(0,0)"><g class="path" style="opacity: 1; transform-origin: -155.92px -4.49px 0px; transform: matrix3d(0.91, 0, 0, 0, 0, 0.91, 0, 0, 0, 0, 0.91, 0, 0, 0, 0, 1); animation: 1s linear -0.594s infinite forwards animate-tnoys1fa54; transform-box: view-box;"><path d="M50.24-10.02L50.24-10.02Q58-10.02 63.52-13.06L63.52-13.06L64.40-11.62Q59.20-8.58 52.96-8.34L52.96-8.34Q47.92-3.54 44.44 7.66Q40.96 18.86 40.96 31.50L40.96 31.50Q40.96 39.26 43.80 42.46Q46.64 45.66 50.48 45.66L50.48 45.66Q53.04 45.66 55.44 44.50Q57.84 43.34 59.16 42.22Q60.48 41.10 62.64 38.94L62.64 38.94Q61.36 35.10 61.36 26.98Q61.36 18.86 64.16 9.46Q66.96 0.06 71.60-5.94Q76.24-11.94 81.20-11.94L81.20-11.94Q83.60-11.94 84.84-10.66Q86.08-9.38 86.08-6.02L86.08-6.02Q86.08 0.78 81.72 12.06Q77.36 23.34 70.48 32.62L70.48 32.62Q71.20 38.78 74.40 41.74Q77.60 44.70 82.56 44.70L82.56 44.70Q91.68 44.70 98.96 27.26L98.96 27.26Q104.56 13.82 104.56-0.26Q104.56-14.34 99.12-19.78L99.12-19.78L100.32-20.98Q106.32-14.98 106.32-0.02L106.32-0.02Q106.32 13.90 100.64 27.98L100.64 27.98Q91.68 49.58 76.24 49.58L76.24 49.58Q68.32 49.58 64.64 43.26L64.64 43.26Q63.68 41.66 63.28 40.86L63.28 40.86Q54.80 49.58 44.56 49.58L44.56 49.58Q37.92 49.58 34.68 45.14Q31.44 40.70 31.44 34.38Q31.44 28.06 33.08 21.78Q34.72 15.50 36.88 11.02Q39.04 6.54 42.08 2.22L42.08 2.22Q46.24-3.94 50.64-8.34L50.64-8.34Q48-8.34 43.76-8.90L43.76-8.90Q34.88-9.38 34.24-9.38L34.24-9.38Q23.04-9.38 16.64-3.74Q10.24 1.90 10.24 11.82L10.24 11.82Q10.24 16.46 12.40 20.54L12.40 20.54Q13.52 22.70 17.28 25.50L17.28 25.50Q18.08 26.14 19.84 26.86Q21.60 27.58 21.68 27.58L21.68 27.58L23.04 27.98L22.80 29.66Q21.28 29.66 18.40 28.06Q15.52 26.46 13.48 24.66Q11.44 22.86 9.96 19.46Q8.48 16.06 8.48 11.82L8.48 11.82Q8.48 1.26 15.44-4.94Q22.40-11.14 34.24-11.14L34.24-11.14Q39.04-11.14 43.04-10.58Q47.04-10.02 50.24-10.02" style="fill: rgb(255, 255, 255);" transform="translate(-213.320,-18.788)"></path></g><g class="path" style="opacity: 1; transform-origin: -136.08px -8.97px 0px; transform: matrix3d(0.91, 0, 0, 0, 0, 0.91, 0, 0, 0, 0, 0.91, 0, 0, 0, 0, 1); animation: 1s linear -0.528s infinite forwards animate-tnoys1fa54; transform-box: view-box;"><path d="M70.24 28.62L70.24 28.62L70.24 29.82Q71.04 28.70 72.32 26.62L72.32 26.62Q77.52 18.54 80.88 9.26Q84.24-0.02 84.24-6.02L84.24-6.02Q84.24-10.18 81.20-10.18L81.20-10.18Q80-10.18 78.56-9.54L78.56-9.54Q75.92-7.06 73.44 0.30L73.44 0.30Q70.24 9.74 70.24 28.62" style="fill: rgb(240, 240, 240);" transform="translate(-213.320,-18.788)"></path></g><g class="path" style="opacity: 1; transform-origin: -88.28px 3.59px 0px; transform: matrix3d(0.91, 0, 0, 0, 0, 0.91, 0, 0, 0, 0, 0.91, 0, 0, 0, 0, 1); animation: 1s linear -0.462s infinite forwards animate-tnoys1fa54; transform-box: view-box;"><path d="M128.56 6.46L128.56 6.46Q138.72 6.46 138.72 14.54L138.72 14.54Q138.72 19.58 133.96 22.18Q129.20 24.78 120.40 24.86L120.40 24.86Q120.24 27.74 120.24 29.42L120.24 29.42Q120.24 33.02 121.88 34.74Q123.52 36.46 126 36.46Q128.48 36.46 130.52 35.50Q132.56 34.54 133.76 33.22Q134.96 31.90 135.84 30.46L135.84 30.46Q137.44 27.82 137.44 27.10L137.44 27.10L138.88 27.74Q138.64 29.02 137.44 31.14Q136.24 33.26 134.80 34.62Q133.36 35.98 130.56 37.14Q127.76 38.30 124.32 38.30L124.32 38.30Q117.84 38.30 114.52 35.22Q111.20 32.14 111.20 26.78L111.20 26.78Q111.20 17.26 115.92 11.86Q120.64 6.46 128.56 6.46 zM136.72 14.54Q136.72 11.90 135.16 10.18Q133.60 8.46 130.52 8.46Q127.44 8.46 124.52 12.14Q121.60 15.82 120.64 23.02L120.64 23.02Q136.72 22.94 136.72 14.54L136.72 14.54" style="fill: rgb(217, 217, 217);" transform="translate(-213.320,-18.788)"></path></g><g class="path" style="opacity: 1; transform-origin: -58.72px -6.77px 0px; transform: matrix3d(0.91, 0, 0, 0, 0, 0.91, 0, 0, 0, 0, 0.91, 0, 0, 0, 0, 1); animation: 1s linear -0.396s infinite forwards animate-tnoys1fa54; transform-box: view-box;"><path d="M157.68 34.70Q156.64 36.06 154.84 37.18Q153.04 38.30 150.16 38.30Q147.28 38.30 145.28 36.46Q143.28 34.62 143.28 31.26L143.28 31.26Q143.28 30.62 143.44 29.18L143.44 29.18L148.64 0.38Q150.08-7.54 152.60-10.90Q155.12-14.26 159.28-14.26L159.28-14.26Q162.16-14.26 164.04-12.10Q165.92-9.94 165.92-5.54Q165.92-1.14 162.52 7.02Q159.12 15.18 159.12 18.94L159.12 18.94L157.68 18.94Q157.68 14.70 161.04 6.82Q164.40-1.06 164.40-5.78L164.40-5.78Q164.40-8.66 163.08-10.74Q161.76-12.82 159.84-12.82L159.84-12.82Q159.76-10.74 157.08 5.86Q154.40 22.46 151.76 36.70L151.76 36.70Q154 36.70 155.92 34.38Q157.84 32.06 158.64 29.74L158.64 29.74L159.52 27.34L160.96 27.98Q160.72 29.10 159.72 31.22Q158.72 33.34 157.68 34.70" style="fill: rgb(189, 189, 189);" transform="translate(-213.320,-18.788)"></path></g><g class="path" style="opacity: 1; transform-origin: -33.56px 3.59px 0px; transform: matrix3d(0.91, 0, 0, 0, 0, 0.91, 0, 0, 0, 0, 0.91, 0, 0, 0, 0, 1); animation: 1s linear -0.33s infinite forwards animate-tnoys1fa54; transform-box: view-box;"><path d="M184.56 20.86Q182.88 19.18 182.88 16.78Q182.88 14.38 184.56 12.66Q186.24 10.94 188.64 10.94L188.64 10.94Q189.36 10.94 190.48 11.26L190.48 11.26Q188.96 8.46 184.80 8.46Q180.64 8.46 177.44 13.74Q174.24 19.02 174.24 29.42L174.24 29.42Q174.24 33.02 175.88 34.74Q177.52 36.46 180 36.46Q182.48 36.46 184.52 35.50Q186.56 34.54 187.76 33.22Q188.96 31.90 189.84 30.46L189.84 30.46Q191.44 27.82 191.44 27.10L191.44 27.10L192.88 27.74Q192.64 29.02 191.44 31.14Q190.24 33.26 188.80 34.62Q187.36 35.98 184.56 37.14Q181.76 38.30 178.32 38.30L178.32 38.30Q171.84 38.30 168.52 35.22Q165.20 32.14 165.20 26.78L165.20 26.78Q165.20 17.26 169.96 11.86Q174.72 6.46 182.88 6.46L182.88 6.46Q188.40 6.46 191.36 9.26Q194.32 12.06 194.32 16.62L194.32 16.62Q194.32 19.50 192.60 21.02Q190.88 22.54 188.56 22.54Q186.24 22.54 184.56 20.86" style="fill: rgb(150, 150, 150);" transform="translate(-213.320,-18.788)"></path></g><g class="path" style="opacity: 1; transform-origin: 0.04px 3.59px 0px; transform: matrix3d(0.91, 0, 0, 0, 0, 0.91, 0, 0, 0, 0, 0.91, 0, 0, 0, 0, 1); animation: 1s linear -0.264s infinite forwards animate-tnoys1fa54; transform-box: view-box;"><path d="M210.24 38.30Q204.08 38.30 200.88 35.22Q197.68 32.14 197.68 27.46Q197.68 22.78 198.52 19.46Q199.36 16.14 201.28 13.06Q203.20 9.98 207.08 8.22Q210.96 6.46 216.76 6.46Q222.56 6.46 225.80 9.54Q229.04 12.62 229.04 17.98L229.04 17.98Q229.04 27.10 224.20 32.70Q219.36 38.30 210.24 38.30L210.24 38.30 zM206.72 30.06L206.72 30.06Q206.72 36.46 210.44 36.46Q214.16 36.46 217.08 30.02Q220 23.58 220 14.70L220 14.70Q220 7.98 216.36 7.98Q212.72 7.98 209.72 14.10Q206.72 20.22 206.72 30.06" style="fill: rgb(115, 115, 115);" transform="translate(-213.320,-18.788)"></path></g><g class="path" style="opacity: 1; transform-origin: 47.8px 3.59px 0px; transform: matrix3d(0.91, 0, 0, 0, 0, 0.91, 0, 0, 0, 0, 0.91, 0, 0, 0, 0, 1); animation: 1s linear -0.198s infinite forwards animate-tnoys1fa54; transform-box: view-box;"><path d="M263.44 36.70L263.44 36.70Q265.36 36.70 267.44 34.46L267.44 34.46L268.64 35.42Q268.08 36.54 266.16 37.42Q264.24 38.30 261.92 38.30L261.92 38.30Q254.64 38.30 254.64 31.74L254.64 31.74Q254.64 28.94 256.08 21.74Q257.52 14.54 257.52 12.30L257.52 12.30Q257.52 8.86 254.24 8.86L254.24 8.86Q249.28 8.86 245.92 21.58L245.92 21.58L243.04 37.58L233.44 37.58L238.72 8.06Q236.32 8.30 234.72 10.30L234.72 10.30L233.52 9.34Q235.92 6.46 239.56 6.46Q243.20 6.46 245.20 8.30Q247.20 10.14 247.20 13.50L247.20 13.50L247.20 13.74Q250.32 6.46 256.64 6.46L256.64 6.46Q261.12 6.46 263.72 8.90Q266.32 11.34 266.56 15.74L266.56 15.74Q268.08 11.34 270.40 8.90Q272.72 6.46 277.12 6.46Q281.52 6.46 284.16 9.14Q286.80 11.82 286.80 16.54L286.80 16.54Q286.80 19.02 285.28 26.10Q283.76 33.18 283.60 36.70L283.60 36.70Q285.52 36.70 287.60 34.46L287.60 34.46L288.80 35.42Q288.24 36.54 286.32 37.42Q284.40 38.30 282.08 38.30L282.08 38.30Q274.80 38.30 274.80 31.74L274.80 31.74Q274.80 28.94 276.24 21.74Q277.68 14.54 277.68 12.30L277.68 12.30Q277.68 8.86 274.40 8.86L274.40 8.86Q268.64 8.86 265.12 25.98L265.12 25.98Q263.60 33.26 263.44 36.70" style="fill: rgb(82, 82, 82);" transform="translate(-213.320,-18.788)"></path></g><g class="path" style="opacity: 1; transform-origin: 93px 3.59px 0px; transform: matrix3d(0.91, 0, 0, 0, 0, 0.91, 0, 0, 0, 0, 0.91, 0, 0, 0, 0, 1); animation: 1s linear -0.132s infinite forwards animate-tnoys1fa54; transform-box: view-box;"><path d="M309.84 6.46L309.84 6.46Q320 6.46 320 14.54L320 14.54Q320 19.58 315.24 22.18Q310.48 24.78 301.68 24.86L301.68 24.86Q301.52 27.74 301.52 29.42L301.52 29.42Q301.52 33.02 303.16 34.74Q304.80 36.46 307.28 36.46Q309.76 36.46 311.80 35.50Q313.84 34.54 315.04 33.22Q316.24 31.90 317.12 30.46L317.12 30.46Q318.72 27.82 318.72 27.10L318.72 27.10L320.16 27.74Q319.92 29.02 318.72 31.14Q317.52 33.26 316.08 34.62Q314.64 35.98 311.84 37.14Q309.04 38.30 305.60 38.30L305.60 38.30Q299.12 38.30 295.80 35.22Q292.48 32.14 292.48 26.78L292.48 26.78Q292.48 17.26 297.20 11.86Q301.92 6.46 309.84 6.46 zM318 14.54Q318 11.90 316.44 10.18Q314.88 8.46 311.80 8.46Q308.72 8.46 305.80 12.14Q302.88 15.82 301.92 23.02L301.92 23.02Q318 22.94 318 14.54L318 14.54" style="fill: rgb(37, 37, 37);" transform="translate(-213.320,-18.788)"></path></g><g class="path" style="opacity: 1; transform-origin: 167.64px -1.29px 0px; transform: matrix3d(0.91, 0, 0, 0, 0, 0.91, 0, 0, 0, 0, 0.91, 0, 0, 0, 0, 1); animation: 1s linear -0.066s infinite forwards animate-tnoys1fa54; transform-box: view-box;"><path d="M353.80 23.02Q351.60 21.34 349.92 17.90Q348.24 14.46 348.24 10.14Q348.24 5.82 349.60 2.14Q350.96-1.54 353.64-4.54Q356.32-7.54 360.80-9.34Q365.28-11.14 370.32-11.14Q375.36-11.14 379.44-10.38Q383.52-9.62 385.84-8.78Q388.16-7.94 389.96-7.18Q391.76-6.42 392.88-5.98Q394-5.54 394.24-5.46Q394.48-5.38 395.52-4.98Q396.56-4.58 396.92-4.50Q397.28-4.42 398.20-4.10Q399.12-3.78 399.64-3.70Q400.16-3.62 401.04-3.42Q401.92-3.22 402.56-3.18Q403.20-3.14 404.08-3.06Q404.96-2.98 405.76-2.98L405.76-2.98Q409.68-2.98 412.60-4.30Q415.52-5.62 416.84-7.22Q418.16-8.82 418.96-10.90L418.96-10.90Q419.92-13.46 419.92-15.54L419.92-15.54L421.68-15.54Q421.68-13.62 420.68-10.86Q419.68-8.10 418.20-6.22Q416.72-4.34 413.44-2.82Q410.16-1.30 405.64-1.30Q401.12-1.30 396.56-2.74L396.56-2.74Q391.12 4.94 385.12 28.22L385.12 28.22Q382.16 39.90 376.60 45.22Q371.04 50.54 360.52 50.54Q350 50.54 344.80 44.14L344.80 44.14Q340.24 38.46 340.24 30.94L340.24 30.94Q340.24 29.98 340.32 29.02L340.32 29.02L342.16 29.02L342.16 30.14Q342.16 35.66 345.12 40.94L345.12 40.94Q346.40 43.18 348.20 44.82Q350 46.46 353.04 47.58Q356.08 48.70 359.84 48.70L359.84 48.70Q366.08 48.70 369.72 43.66Q373.36 38.62 376.76 24.18Q380.16 9.74 383.72 3.54Q387.28-2.66 394.08-3.62L394.08-3.62Q392-4.42 389.68-5.42Q387.36-6.42 385.24-7.18Q383.12-7.94 379.16-8.70Q375.20-9.46 370.32-9.46Q365.44-9.46 361.24-7.70Q357.04-5.94 354.72-3.06L354.72-3.06Q350.08 2.54 350.08 9.90L350.08 9.90Q350.08 14.06 351.60 17.22Q353.12 20.38 355.28 21.90L355.28 21.90Q359.68 24.86 363.28 25.26L363.28 25.26L364.80 25.42L364.32 27.18Q362.32 27.18 359.16 25.94Q356 24.70 353.80 23.02" style="fill: rgb(0, 0, 0);" transform="translate(-213.320,-18.788)"></path></g><g class="path" style="opacity: 1; transform-origin: 206.12px 3.59px 0px; transform: matrix3d(0.91, 0, 0, 0, 0, 0.91, 0, 0, 0, 0, 0.91, 0, 0, 0, 0, 1); animation: 1s linear infinite forwards animate-tnoys1fa54; transform-box: view-box;"><path d="M416.32 38.30Q410.16 38.30 406.96 35.22Q403.76 32.14 403.76 27.46Q403.76 22.78 404.60 19.46Q405.44 16.14 407.36 13.06Q409.28 9.98 413.16 8.22Q417.04 6.46 422.84 6.46Q428.64 6.46 431.88 9.54Q435.12 12.62 435.12 17.98L435.12 17.98Q435.12 27.10 430.28 32.70Q425.44 38.30 416.32 38.30L416.32 38.30 zM412.80 30.06L412.80 30.06Q412.80 36.46 416.52 36.46Q420.24 36.46 423.16 30.02Q426.08 23.58 426.08 14.70L426.08 14.70Q426.08 7.98 422.44 7.98Q418.80 7.98 415.80 14.10Q412.80 20.22 412.80 30.06" style="fill: rgb(255, 255, 255);" transform="translate(-213.320,-18.788)"></path></g></g><text dy="0.35em" fill="#ffffff" font-family="Sail" font-size="120">Welcome To</text>
</g>
</g><style type="text/css">@keyframes animate-tnoys1fa54 { 0.00% {transform: translate(0.00px,0.00px) rotate(0.00deg) scale(0.91, 0.91) skew(0deg, 0.00deg) ;opacity: 1.00;}4.00% {transform: translate(0.00px,0.00px) rotate(0.00deg) scale(0.91, 0.91) ;}8.00% {animation-timing-function: cubic-bezier(0.69,0.60,0.35,0.27);transform: translate(0.00px,0.00px) rotate(0.00deg) scale(0.91, 0.91) ;}14.00% {transform: translate(0.00px,0.00px) rotate(0.00deg) scale(0.93, 0.93) ;}18.00% {transform: translate(0.00px,0.00px) rotate(0.00deg) scale(0.94, 0.94) ;}22.00% {animation-timing-function: cubic-bezier(0.67,0.66,0.34,0.33);transform: translate(0.00px,0.00px) rotate(0.00deg) scale(0.96, 0.96) ;}26.00% {transform: translate(0.00px,0.00px) rotate(0.00deg) scale(0.97, 0.97) ;}30.00% {transform: translate(0.00px,0.00px) rotate(0.00deg) scale(0.99, 0.99) ;}34.00% {animation-timing-function: cubic-bezier(0.65,0.71,0.32,0.38);transform: translate(0.00px,0.00px) rotate(0.00deg) scale(1.01, 1.01) ;}40.00% {animation-timing-function: cubic-bezier(0.64,0.74,0.31,0.41);transform: translate(0.00px,0.00px) rotate(0.00deg) scale(1.02, 1.02) ;}46.00% {animation-timing-function: cubic-bezier(0.60,0.91,0.23,0.63);transform: translate(0.00px,0.00px) rotate(0.00deg) scale(1.03, 1.03) ;}50.00% {transform: translate(0.00px,0.00px) rotate(0.00deg) scale(1.03, 1.03) ;}54.00% {transform: translate(0.00px,0.00px) rotate(0.00deg) scale(1.03, 1.03) ;}58.00% {animation-timing-function: cubic-bezier(0.69,0.60,0.35,0.27);transform: translate(0.00px,0.00px) rotate(0.00deg) scale(1.03, 1.03) ;}64.00% {transform: translate(0.00px,0.00px) rotate(0.00deg) scale(1.01, 1.01) ;}68.00% {transform: translate(0.00px,0.00px) rotate(0.00deg) scale(1.00, 1.00) ;}72.00% {animation-timing-function: cubic-bezier(0.67,0.66,0.34,0.33);transform: translate(0.00px,0.00px) rotate(0.00deg) scale(0.98, 0.98) ;}76.00% {animation-timing-function: cubic-bezier(0.66,0.68,0.33,0.35);transform: translate(0.00px,0.00px) rotate(0.00deg) scale(0.97, 0.97) ;}82.00% {animation-timing-function: cubic-bezier(0.65,0.71,0.32,0.38);transform: translate(0.00px,0.00px) rotate(0.00deg) scale(0.94, 0.94) ;}88.00% {animation-timing-function: cubic-bezier(0.65,0.73,0.31,0.40);transform: translate(0.00px,0.00px) rotate(0.00deg) scale(0.92, 0.92) ;}94.00% {animation-timing-function: cubic-bezier(0.63,0.80,0.28,0.48);transform: translate(0.00px,0.00px) rotate(0.00deg) scale(0.91, 0.91) ;}100.00% {animation-timing-function: cubic-bezier(0.63,0.80,0.28,0.48);transform: translate(0.00px,0.00px) rotate(0.00deg) scale(0.91, 0.91) ;} }</style><!-- [ldio] generated by https://loading.io --></svg>